{
    "asset": {
        "version": "1.0",
        "generator": "Open Asset Import Library (assimp v4.1.0)"
    },
    "accessors": {
        "mesh_accessor": {
            "bufferView": "mesh_view",
            "byteOffset": 0,
            "byteStride": 0,
            "componentType": 5126,
            "count": 1573,
            "type": "VEC3",
            "max": [
                7.2642292976379398,
                9.107550621032715,
                6.571869373321533
            ],
            "min": [
                -9.833332061767579,
                -9.107620239257813,
                -6.571774482727051
            ]
        },
        "mesh_accessor_0": {
            "bufferView": "mesh_view_0",
            "byteOffset": 0,
            "byteStride": 0,
            "componentType": 5126,
            "count": 1573,
            "type": "VEC3",
            "max": [
                1.0,
                0.9958725571632385,
                0.9807119369506836
            ],
            "min": [
                -1.0,
                -0.9958783388137817,
                -0.980768620967865
            ]
        },
        "mesh_accessor_1": {
            "bufferView": "mesh_view_1",
            "byteOffset": 0,
            "byteStride": 0,
            "componentType": 5126,
            "count": 1573,
            "type": "VEC2",
            "max": [
                1.0000007152557374,
                1.0
            ],
            "min": [
                0.0,
                1.7881393432617188e-7
            ]
        },
        "mesh_accessor_2": {
            "bufferView": "mesh_view_2",
            "byteOffset": 0,
            "byteStride": 0,
            "componentType": 5123,
            "count": 8640,
            "type": "SCALAR",
            "max": [
                1572.0
            ],
            "min": [
                0.0
            ]
        }
    },
    "buffers": {
        "../../download/3uh9903g51s1/3uh9903g51s1": {
            "byteLength": 67616,
            "type": "arraybuffer",
            "uri": "../../download/3uh9903g51s1/3uh9903g51s1.bin"
        }
    },
    "bufferViews": {
        "mesh_view": {
            "buffer": "../../download/3uh9903g51s1/3uh9903g51s1",
            "byteOffset": 0,
            "byteLength": 18876,
            "target": 34962
        },
        "mesh_view_0": {
            "buffer": "../../download/3uh9903g51s1/3uh9903g51s1",
            "byteOffset": 18876,
            "byteLength": 18876,
            "target": 34962
        },
        "mesh_view_1": {
            "buffer": "../../download/3uh9903g51s1/3uh9903g51s1",
            "byteOffset": 37752,
            "byteLength": 12584,
            "target": 34962
        },
        "mesh_view_2": {
            "buffer": "../../download/3uh9903g51s1/3uh9903g51s1",
            "byteOffset": 50336,
            "byteLength": 17280,
            "target": 34963
        }
    },
    "materials": {
        "01 - Default": {
            "values": {
                "ambient": [
                    0.6235294342041016,
                    1.0,
                    0.13333334028720857,
                    1.0
                ],
                "diffuse": [
                    0.6235294342041016,
                    1.0,
                    0.13333334028720857,
                    1.0
                ],
                "specular": [
                    0.0,
                    0.0,
                    0.0,
                    1.0
                ],
                "emission": [
                    0.0,
                    0.0,
                    0.0,
                    1.0
                ],
                "shininess": 1.9999998807907105
            }
        }
    },
    "meshes": {
        "mesh": {
            "name": "",
            "primitives": [
                {
                    "mode": 4,
                    "material": "01 - Default",
                    "indices": "mesh_accessor_2",
                    "attributes": {
                        "POSITION": "mesh_accessor",
                        "NORMAL": "mesh_accessor_0",
                        "TEXCOORD_0": "mesh_accessor_1"
                    }
                }
            ]
        }
    },
    "nodes": {
        "RootNode": {
            "children": [
                "Torus Knot001_$AssimpFbx$_PreRotation"
            ]
        },
        "Torus Knot001_$AssimpFbx$_PreRotation": {
            "matrix": [
                1.0,
                0.0,
                0.0,
                0.0,
                0.0,
                -4.371138828673793e-8,
                -1.0,
                0.0,
                0.0,
                1.0,
                -4.371138828673793e-8,
                0.0,
                0.0,
                0.0,
                0.0,
                1.0
            ],
            "children": [
                "Torus Knot001"
            ]
        },
        "Torus Knot001": {
            "meshes": [
                "mesh"
            ]
        }
    },
    "scenes": {
        "defaultScene": {
            "nodes": [
                "RootNode"
            ]
        }
    },
    "scene": "defaultScene"
}